# xmcd
#
# Track frame offsets:
#	150
#	11910
#	25410
#	40825
#	53280
#	65550
#	76930
#	90165
#	103860
#	118920
#	133005
#	146185
#	158845
#	171107
#	184115
#
# Disc length: 2789
#
# Revision: 1
# Processed by: cddbd v1.5.1PL0 Copyright (c) Steve Scherf et al.
# Submitted via: ExactAudioCopy v0.95a3
# Normalized: r0:TDELIM( - )
#
DISCID=c60ae30f
DTITLE=Various Artist - kerst Swinging Christmas
DYEAR=1900
DGENRE=kerst Swinging Christmas
TTITLE0=Clarence Williams' Blues Five - Sante Claus Blues
TTITLE1=Ozie Ware - Santa Claus, bring my man back
TTITLE2=Paul Whiteman and Orchestra - Christmas night in Harlem
TTITLE3=Harry Reser and Orchestra - Santa Claus is coming to town
TTITLE4=Ted Weems and Orchestra - Winter Wonderland
TTITLE5=Benny Goodman and Orchestra - Jingle Bells
TTITLE6=Putney Dandrigde and his Swing Band - Santa Claus came in the spring
TTITLE7=Fats Waller and his Rythm - Swingin' them Jingle Bells
TTITLE8=Lionel Hampton and Orchestra - Merry Christmas Baby
TTITLE9=Ella Fitzgerald - Santa Claus got stuck in my chimney
TTITLE10=Louis Armstrong and the Commanders - Cool Yule
TTITLE11=Louis Armstrong and the Commanders - 'Zat you Santa Claus
TTITLE12=Lightnin' Hopkins - Merry Christmas
TTITLE13=Louis Armstrong - Christmas in New Orleans
TTITLE14=Louis Armstrong - The night before Christmas
EXTD=
EXTT0=
EXTT1=
EXTT2=
EXTT3=
EXTT4=
EXTT5=
EXTT6=
EXTT7=
EXTT8=
EXTT9=
EXTT10=
EXTT11=
EXTT12=
EXTT13=
EXTT14=
PLAYORDER=
